#!OML:ASF F:\VICON\USERDATA\INSTALL\rory3\rory3.ASF
:FULLY-SPECIFIED
:DEGREES
81
root 13.8421 18.0426 -8.19303 -0.561107 6.99819 2.85501
lowerback 9.67687 -0.823935 -4.29777
upperback 1.00411 -1.5252 0.549997
thorax -4.25351 -0.675577 3.19354
lowerneck -22.1393 -6.07255 -12.8238
upperneck 26.1707 -6.88097 9.29102
head 13.3037 -3.08582 4.56572
rclavicle 1.46107e-014 7.95139e-016
rhumerus -38.7533 -18.7878 -77.0036
rradius 28.3354
rwrist 5.22229
rhand -14.0976 8.01442
rfingers 7.12502
rthumb 12.035 -21.6195
lclavicle 1.46107e-014 7.95139e-016
lhumerus -27.2931 6.98293 83.3261
lradius 34.3003
lwrist -5.21654
lhand -19.5356 28.549
lfingers 7.12502
lthumb 6.78811 58.4202
rfemur -19.519 -1.77846 21.903
rtibia 23.7787
rfoot -1.56642 0.34437
rtoes 8.20986
lfemur 13.0327 -2.98728 -25.2168
ltibia 24.8054
lfoot 10.432 -11.5506
ltoes -11.0762
82
root 13.8382 18.0465 -8.03874 -0.703803 7.11251 2.55856
lowerback 9.58913 -0.818432 -4.02842
upperback 1.03487 -1.48112 0.630404
thorax -4.18075 -0.660115 3.11723
lowerneck -22.1328 -6.19247 -12.8612
upperneck 26.2199 -7.04552 9.289
head 13.3478 -3.16242 4.54134
rclavicle -1.81391e-014 6.75868e-015
rhumerus -38.8531 -19.05 -76.834
rradius 28.1965
rwrist 5.46458
rhand -14.1127 8.08107
rfingers 7.12502
rthumb 12.0204 -21.5537
lclavicle -1.81391e-014 6.75868e-015
lhumerus -27.6506 6.76476 83.4324
lradius 34.0826
lwrist -5.04279
lhand -19.9828 28.0092
lfingers 7.12502
lthumb 6.35645 57.8938
rfemur -18.8064 -2.00844 22.3335
rtibia 23.675
rfoot -1.92399 0.608356
rtoes 8.19216
lfemur 12.0269 -3.07016 -24.658
ltibia 27.1434
lfoot 12.4393 -12.5527
ltoes -11.298
83
root 13.8351 18.059 -7.88217 -0.895119 7.16641 2.14893
lowerback 9.60994 -0.802471 -3.64737
upperback 1.02222 -1.41611 0.732718
thorax -4.21749 -0.632574 3.00164
lowerneck -22.2098 -6.23838 -12.9732
upperneck 26.4 -7.13542 9.48273
head 13.4656 -3.18771 4.62854
rclavicle 5.98839e-015 5.1684e-015
rhumerus -39.033 -19.1526 -76.6948
rradius 28.0704
rwrist 5.78172
rhand -14.0157 8.23125
rfingers 7.12502
rthumb 12.114 -21.3981
lclavicle 5.98839e-015 5.1684e-015
lhumerus -28.0412 6.6539 83.4464
lradius 33.7247
lwrist -5.27635
lhand -19.4435 28.2949
lfingers 7.12502
lthumb 6.87701 58.1632
rfemur -17.9433 -2.14052 22.8457
rtibia 23.4321
rfoot -2.31856 0.641958
rtoes 8.70866
lfemur 10.9859 -3.1748 -24.0195
ltibia 29.5255
lfoot 14.0955 -13.4241
ltoes -10.7344
84
root 13.8332 18.0789 -7.7252 -0.938762 7.20965 1.82123
lowerback 9.50398 -0.792761 -3.33434
upperback 0.984972 -1.36285 0.826891
thorax -4.20634 -0.610618 2.91455
lowerneck -22.3341 -6.25894 -13.0638
upperneck 26.5385 -7.16071 9.59565
head 13.5625 -3.19154 4.68998
rclavicle 7.05686e-015 -4.77083e-015
rhumerus -39.1172 -18.8276 -76.773
rradius 28.0603
rwrist 5.61872
rhand -13.9922 8.1814
rfingers 7.12502
rthumb 12.1366 -21.4466
lclavicle 7.05686e-015 -4.77083e-015
lhumerus -28.4193 6.50882 83.4897
lradius 33.4136
lwrist -5.43004
lhand -18.8855 28.4357
lfingers 7.12502
lthumb 7.41563 58.2857
rfemur -17.1431 -2.40262 23.2871
rtibia 23.0201
rfoot -2.65682 0.80775
rtoes 8.28743
lfemur 9.68919 -3.15785 -23.4345
ltibia 31.9582
lfoot 16.0761 -13.8617
ltoes -6.87035
85
root 13.8307 18.103 -7.57358 -1.03514 7.2627 1.3667
lowerback 9.40137 -0.778903 -2.88909
upperback 1.04721 -1.28881 0.946162
thorax -4.09659 -0.583558 2.77498
lowerneck -22.5345 -6.31592 -13.0629
upperneck 26.5932 -7.23349 9.6362
head 13.6396 -3.21299 4.69305
rclavicle 3.71976e-014 -1.03368e-014
rhumerus -38.978 -18.5407 -76.9378
rradius 28.0597
rwrist 5.38449
rhand -13.9993 8.04467
rfingers 7.12502
rthumb 12.1298 -21.5837
lclavicle 3.71976e-014 -1.03368e-014
lhumerus -28.5777 6.22894 83.6317
lradius 33.178
lwrist -5.42348
lhand -18.7345 28.743
lfingers 7.12502
lthumb 7.56146 58.5879
rfemur -16.271 -2.63596 23.8633
rtibia 22.4977
rfoot -2.89388 1.07811
rtoes 8.46588
lfemur 8.33175 -3.12333 -22.7033
ltibia 34.3812
lfoot 18.5512 -14.0646
ltoes -1.91477
86
root 13.8256 18.1244 -7.42575 -1.21289 7.24013 0.835422
lowerback 9.45081 -0.730141 -2.41797
upperback 1.04516 -1.16975 1.09528
thorax -4.14073 -0.530386 2.65084
lowerneck -22.4802 -6.35812 -13.0706
upperneck 26.5957 -7.30621 9.65543
head 13.6414 -3.24416 4.68852
rclavicle -3.05631e-015 9.14409e-015
rhumerus -38.9898 -18.3067 -77.0126
rradius 28.0744
rwrist 5.30577
rhand -14.0313 8.03462
rfingers 7.12502
rthumb 12.0989 -21.5956
lclavicle -3.05631e-015 9.14409e-015
lhumerus -28.8329 5.99257 83.7184
lradius 32.9033
lwrist -5.71229
lhand -18.0931 28.6234
lfingers 7.12502
lthumb 8.18047 58.4451
rfemur -15.3354 -2.55294 24.4889
rtibia 21.9647
rfoot -3.10509 1.05365
rtoes 9.46258
lfemur 7.07923 -3.1777 -21.9253
ltibia 36.754
lfoot 20.6903 -14.4087
ltoes 0.878368
87
root 13.8224 18.1382 -7.27777 -1.32263 7.19429 0.529596
lowerback 9.50924 -0.664388 -2.13478
upperback 0.94878 -1.05028 1.18676
thorax -4.28476 -0.471963 2.57387
lowerneck -22.2606 -6.42223 -13.1921
upperneck 26.5886 -7.39897 9.70129
head 13.6148 -3.29673 4.71128
rclavicle 8.99501e-015 -1.59028e-015
rhumerus -39.1866 -18.1721 -76.9371
rradius 28.154
rwrist 5.50007
rhand -13.8716 7.92597
rfingers 7.12502
rthumb 12.2529 -21.6951
lclavicle 8.99501e-015 -1.59028e-015
lhumerus -29.275 5.57964 83.8369
lradius 32.6727
lwrist -6.00924
lhand -17.5126 28.2795
lfingers 7.12502
lthumb 8.74074 58.0785
rfemur -14.4631 -2.64206 24.8799
rtibia 21.4355
rfoot -3.41285 1.1701
rtoes 9.87173
lfemur 5.87298 -3.25118 -21.4063
ltibia 39.0402
lfoot 22.1547 -15.2771
ltoes 2.42364
88
root 13.8191 18.1455 -7.13252 -1.50189 7.26549 0.189016
lowerback 9.56289 -0.617178 -1.81546
upperback 0.947447 -0.949481 1.29701
thorax -4.32541 -0.426151 2.4967
lowerneck -22.1803 -6.50684 -13.3116
upperneck 26.5785 -7.48854 9.70433
head 13.6134 -3.34952 4.71541
rclavicle -2.55935e-015 1.03368e-014
rhumerus -39.1892 -18.0294 -76.8881
rradius 28.2048
rwrist 5.61792
rhand -13.4984 8.06226
rfingers 7.12502
rthumb 12.6127 -21.537
lclavicle -2.55935e-015 1.03368e-014
lhumerus -29.5507 5.17253 84.026
lradius 32.3986
lwrist -6.49637
lhand -16.9917 28.161
lfingers 7.12502
lthumb 9.24331 57.9384
rfemur -13.5433 -2.85155 25.3121
rtibia 20.9794
rfoot -3.72111 1.20829
rtoes 10.0217
lfemur 4.78669 -3.30532 -20.7986
ltibia 41.2421
lfoot 22.9354 -16.637
ltoes 2.92324
89
root 13.8128 18.1562 -6.99078 -1.70991 7.34076 -0.160926
lowerback 9.707 -0.565913 -1.53269
upperback 0.939917 -0.848109 1.3943
thorax -4.42204 -0.378808 2.42813
lowerneck -22.1864 -6.55177 -13.3265
upperneck 26.6404 -7.55289 9.70648
head 13.6513 -3.37906 4.7085
rclavicle -2.3233e-014 -1.59028e-015
rhumerus -39.1262 -17.7189 -77.0226
rradius 28.2715
rwrist 5.56204
rhand -13.2424 8.28483
rfingers 7.12502
rthumb 12.8596 -21.299
lclavicle -2.3233e-014 -1.59028e-015
lhumerus -29.8833 4.79963 84.1798
lradius 32.2794
lwrist -6.94429
lhand -16.164 27.3951
lfingers 7.12502
lthumb 10.0419 57.1355
rfemur -12.6372 -3.03519 25.7775
rtibia 20.5785
rfoot -4.05044 1.19183
rtoes 9.50837
lfemur 3.67936 -3.35891 -20.1899
ltibia 43.3947
lfoot 23.1983 -17.5675
ltoes 2.6538
90
root 13.8083 18.166 -6.85217 -1.85141 7.31568 -0.427966
lowerback 9.91324 -0.511108 -1.27316
upperback 0.853056 -0.747515 1.41138
thorax -4.63637 -0.330417 2.29067
lowerneck -22.1697 -6.56617 -13.2854
upperneck 26.7434 -7.62544 9.78327
head 13.7037 -3.3977 4.7233
rclavicle 1.87106e-014 3.18055e-015
rhumerus -39.1116 -17.2304 -77.3019
rradius 28.3744
rwrist 5.35652
rhand -13.1118 8.41185
rfingers 7.12502
rthumb 12.9855 -21.164
lclavicle 1.87106e-014 3.18055e-015
lhumerus -30.3946 4.42418 84.2043
lradius 32.3877
lwrist -7.34893
lhand -16.9982 29.0378
lfingers 7.12502
lthumb 9.23705 58.8154
rfemur -11.7581 -3.26011 26.1415
rtibia 20.0828
rfoot -4.33251 1.3413
rtoes 9.35248
lfemur 2.45928 -3.28443 -19.6959
ltibia 45.5261
lfoot 22.8373 -17.9156
ltoes 1.08626
91
root 13.8056 18.1766 -6.71249 -1.96204 7.11657 -0.762411
lowerback 9.99447 -0.421086 -0.926985
upperback 0.817178 -0.587915 1.44504
thorax -4.73013 -0.25685 2.11015
lowerneck -22.1739 -6.60974 -13.2802
upperneck 26.8099 -7.72374 9.86686
head 13.7514 -3.42937 4.7403
rclavicle 1.06847e-015 -3.37934e-015
rhumerus -38.9713 -16.9383 -77.4952
rradius 28.3508
rwrist 5.50773
rhand -13.0264 8.69223
rfingers 7.12502
rthumb 13.0677 -20.8784
lclavicle 1.06847e-015 -3.37934e-015
lhumerus -30.7203 4.05224 84.2129
lradius 32.3241
lwrist -7.75931
lhand -17.0227 29.8203
lfingers 7.12502
lthumb 9.21345 59.599
rfemur -10.8729 -3.27936 26.5667
rtibia 19.5139
rfoot -4.54121 1.49357
rtoes 9.69966
lfemur 1.20024 -2.99928 -19.131
ltibia 47.6241
lfoot 22.0061 -17.6767
ltoes -0.859068
92
root 13.8048 18.1929 -6.56963 -2.10992 6.87873 -0.991557
lowerback 10.0267 -0.285384 -0.694953
upperback 0.803487 -0.380253 1.47026
thorax -4.77272 -0.158277 1.97725
lowerneck -22.0255 -6.62974 -13.3735
upperneck 26.7771 -7.77572 9.98804
head 13.7255 -3.44944 4.79635
rclavicle 4.52235e-015 9.74045e-015
rhumerus -38.9077 -16.671 -77.6131
rradius 28.4216
rwrist 5.58857
rhand -13.0331 8.67316
rfingers 7.12502
rthumb 13.0613 -20.8979
lclavicle 4.52235e-015 9.74045e-015
lhumerus -31.0707 3.63356 84.2925
lradius 32.2871
lwrist -8.0517
lhand -17.0175 29.6765
lfingers 7.12502
lthumb 9.21844 59.455
rfemur -9.93498 -3.2455 26.8686
rtibia 18.9867
rfoot -4.75758 1.60785
rtoes 9.79787
lfemur -0.0243246 -2.61973 -18.7128
ltibia 49.6361
lfoot 20.7128 -16.8716
ltoes -3.10968
93
root 13.8039 18.2017 -6.43234 -2.21738 6.76985 -1.22603
lowerback 10.025 -0.184597 -0.477328
upperback 0.783733 -0.219878 1.50611
thorax -4.79939 -0.0828768 1.86962
lowerneck -21.8785 -6.68143 -13.4859
upperneck 26.7325 -7.87269 10.1293
head 13.704 -3.48836 4.85462
rclavicle -1.04113e-014 3.57812e-015
rhumerus -38.748 -16.3177 -77.7896
rradius 28.4885
rwrist 5.44932
rhand -13.1133 8.39132
rfingers 7.12502
rthumb 12.984 -21.1847
lclavicle -1.04113e-014 3.57812e-015
lhumerus -31.4664 3.39621 84.3443
lradius 32.3317
lwrist -8.38671
lhand -16.5642 29.2484
lfingers 7.12502
lthumb 9.65582 59.0071
rfemur -9.0647 -3.19967 27.1635
rtibia 18.4473
rfoot -4.88233 1.70233
rtoes 9.13124
lfemur -1.22967 -2.33853 -18.2861
ltibia 51.5164
lfoot 18.4332 -16.291
ltoes -5.98217
94
root 13.8002 18.1979 -6.30082 -2.30175 6.70174 -1.57623
lowerback 10.0092 -0.127158 -0.182831
upperback 0.805318 -0.106961 1.58138
thorax -4.77251 -0.0326644 1.76594
lowerneck -21.9032 -6.73441 -13.5378
upperneck 26.7566 -7.95345 10.2034
head 13.7385 -3.51862 4.87911
rclavicle -2.36305e-014 3.97569e-015
rhumerus -38.3711 -16.258 -77.8753
rradius 28.3462
rwrist 5.69791
rhand -13.0775 8.99059
rfingers 7.12502
rthumb 13.0185 -20.5832
lclavicle -2.36305e-014 3.97569e-015
lhumerus -31.7925 3.38685 84.3298
lradius 32.4397
lwrist -8.65784
lhand -16.2181 28.9582
lfingers 7.12502
lthumb 9.98974 58.7012
rfemur -8.26523 -3.12652 27.609
rtibia 17.8962
rfoot -4.98019 1.75826
rtoes 7.63432
lfemur -2.33743 -2.08218 -17.6661
ltibia 53.2195
lfoot 16.0299 -15.7177
ltoes -7.40249
95
root 13.7947 18.2018 -6.16387 -2.43037 6.62447 -1.79168
lowerback 10.0948 -0.0694939 -0.0652989
upperback 0.771694 -0.0138763 1.62247
thorax -4.85856 0.0118636 1.73032
lowerneck -21.8097 -6.73293 -13.5453
upperneck 26.7872 -7.98577 10.2681
head 13.7406 -3.52793 4.9031
rclavicle -1.43001e-014 5.36719e-015
rhumerus -38.1045 -16.384 -77.8159
rradius 28.1022
rwrist 6.30446
rhand -12.8598 9.76311
rfingers 7.12502
rthumb 13.2283 -19.7972
lclavicle -1.43001e-014 5.36719e-015
lhumerus -32.2737 3.44173 84.2537
lradius 32.5439
lwrist -8.71859
lhand -17.0362 28.792
lfingers 7.12502
lthumb 9.20042 58.5713
rfemur -7.42155 -3.02123 27.9088
rtibia 17.4639
rfoot -5.20853 1.71678
rtoes 6.98376
lfemur -3.42184 -1.78819 -17.2035
ltibia 54.7351
lfoot 14.5485 -14.5006
ltoes -6.79986
